<svg width="679" height="679" viewBox="0 0 679 679" fill="none" xmlns="http://www.w3.org/2000/svg">
<g id="Favicon">
<path id="Vector 26" d="M104 408.006V573.131L259.135 664L575 481.395V300.613L544.365 292.394L575 274.683V97.3266L432.594 15L104 204.964V370.089L136.794 389.048L104 408.006Z" fill="white"/>
<path id="Subtract" d="M549 113.965V256.619L495.258 287.507L549 318.424V461.078L253.369 631L129 561.985V420.607L184.729 388.453L129 357.529V216.149L427.383 44L549 113.965ZM145.311 552.283L252.35 611.576V488.901L145.311 429.608V552.283ZM145.311 347.825L252.35 407.118V284.443L145.311 225.15V347.825Z" fill="black"/>
</g>
</svg>
