<svg preserveAspectRatio="none" overflow="visible" style="display: block;" width="86.4846" height="96.893" viewBox="0 0 86.4846 96.893" fill="none" xmlns="http://www.w3.org/2000/svg">
<g id="Group 24">
<path id="Vector 23" d="M42.1389 96.009L2.0314 73.4925C1.08554 72.9615 0.5 71.9613 0.5 70.8766V25.9502C0.5 24.8776 1.07259 23.8867 2.00182 23.351L40.5484 1.13203C41.7667 0.429803 43.2642 0.418832 44.4926 1.10313L84.4445 23.3588C85.3952 23.8884 85.9846 24.8913 85.9846 25.9796V70.8918C85.9846 71.9684 85.4077 72.9624 84.473 73.4965L45.0959 95.9978C44.1806 96.5208 43.058 96.525 42.1389 96.009Z" fill="#FD3A8F" stroke="#202225"/>
<path id="Vector 8" d="M1.25697 24.2167L3.02213 25.2254M43.621 48.4248L41.8558 47.4161M43.621 48.4248L45.3862 47.4161M43.621 48.4248V50.4421M85.985 24.2167L84.2199 25.2254M43.621 96.8408V94.8235M6.55247 27.2427L10.0828 29.2601M13.6131 31.2774L17.1435 33.2947M20.6738 35.3121L24.2041 37.3294M27.7345 39.3468L31.2648 41.3641M34.7951 43.3814L38.3255 45.3988M48.9165 45.3988L52.4468 43.3814M55.9772 41.3641L59.5075 39.3468M63.0378 37.3294L66.5682 35.3121M70.0985 33.2947L73.6289 31.2774M77.1592 29.2601L80.6895 27.2427M43.621 54.4768V58.5114M43.621 62.5461V66.5808M43.621 70.6155V74.6501M43.621 78.6848V82.7195M43.621 86.7541V90.7888" stroke="#202225"/>
<g id="Frame" clip-path="url(#clip0_0_7)">
<path id="Vector" d="M55.1078 67.7644C55.4215 67.3823 55.5347 66.8604 55.3606 66.5987C55.1865 66.3371 54.7912 66.4346 54.4775 66.8167L54.7927 67.2906L55.1078 67.7644ZM62.5732 68.094V67.344C62.2145 67.5511 61.9237 68.0548 61.9237 68.469L62.5732 68.094ZM70.435 64.305C70.7937 64.0979 71.0845 63.5942 71.0845 63.18C71.0845 62.7657 70.7937 62.5979 70.435 62.805V63.555V64.305ZM54.7927 67.2906L54.4775 66.8167C52.6682 69.0206 51.4413 71.959 51.4413 74.521L52.0908 74.146L52.7403 73.771C52.7403 71.7758 53.6945 69.486 55.1078 67.7644L54.7927 67.2906ZM52.0908 74.146L51.4413 74.521C51.4413 78.2776 54.0787 79.8003 57.332 77.922V77.172V76.422C54.7961 77.8861 52.7403 76.6991 52.7403 73.771L52.0908 74.146ZM57.332 77.172V77.922C60.5854 76.0437 63.2227 71.4755 63.2227 67.719L62.5732 68.094L61.9237 68.469C61.9237 71.3971 59.8679 74.9579 57.332 76.422V77.172ZM62.5732 68.094V68.844L70.435 64.305V63.555V62.805L62.5732 67.344V68.094Z" fill="white"/>
<path id="Vector_2" d="M64.4513 53.0284C64.2771 52.7669 63.8816 52.8647 63.5681 53.2469C63.2545 53.6292 63.1415 54.151 63.3157 54.4125L63.8835 53.7204L64.4513 53.0284ZM67.8892 59.7333L67.3214 60.4254C67.4051 60.551 67.5453 60.5985 67.711 60.5574C67.8768 60.5163 68.0545 60.39 68.2051 60.2063L67.8892 59.7333ZM67.5655 69.3511C67.2856 69.2537 66.8768 69.5417 66.6524 69.9944C66.4281 70.4471 66.4731 70.8931 66.753 70.9906L67.1592 70.1709L67.5655 69.3511ZM63.8835 53.7204L63.3157 54.4125L67.3214 60.4254L67.8892 59.7333L68.457 59.0413L64.4513 53.0284L63.8835 53.7204ZM67.8892 59.7333L68.2051 60.2063C68.8647 59.4015 69.6245 58.7209 70.435 58.253V57.503V56.753C69.3977 57.3518 68.4211 58.226 67.5733 59.2604L67.8892 59.7333ZM70.435 57.503V58.253C72.9709 56.7889 75.0267 57.9758 75.0267 60.904L75.6762 60.529L76.3257 60.154C76.3257 56.3974 73.6883 54.8747 70.435 56.753V57.503ZM75.6762 60.529L75.0267 60.904C75.0267 63.8321 72.9709 67.3929 70.435 68.857V69.607V70.357C73.6883 68.4787 76.3257 63.9105 76.3257 60.154L75.6762 60.529ZM70.435 69.607V68.857C69.3486 69.4842 68.3517 69.6249 67.5655 69.3511L67.1592 70.1709L66.753 70.9906C67.7614 71.3417 69.0426 71.1609 70.435 70.357V69.607Z" fill="white"/>
<path id="Vector_3" d="M63.8835 55.2334V55.9834C64.9659 55.3585 65.8433 53.8387 65.8433 52.5889L65.1938 52.9639L64.5443 53.3389C64.5443 53.7603 64.2485 54.2727 63.8835 54.4834V55.2334ZM65.1938 52.9639L65.8433 52.5889C65.8433 51.3391 64.9659 50.8325 63.8835 51.4574V52.2074V52.9574C64.2485 52.7467 64.5443 52.9175 64.5443 53.3389L65.1938 52.9639ZM63.8835 55.2334V54.4834C63.5186 54.6942 63.2227 54.5233 63.2227 54.1019L62.5732 54.4769L61.9237 54.8519C61.9237 56.1018 62.8011 56.6084 63.8835 55.9834V55.2334ZM62.5732 54.4769L63.2227 54.1019C63.2227 53.6805 63.5186 53.1681 63.8835 52.9574V52.2074V51.4574C62.8011 52.0824 61.9237 53.6021 61.9237 54.8519L62.5732 54.4769ZM63.8835 55.2334L64.533 54.8584V51.8324L63.8835 52.2074L63.234 52.5824V55.6084L63.8835 55.2334Z" fill="white"/>
<path id="Vector_4" d="M57.332 72.633V73.383C58.4144 72.7581 59.2918 71.2383 59.2918 69.9885L58.6423 70.3635L57.9928 70.7385C57.9928 71.1599 57.697 71.6723 57.332 71.883V72.633ZM58.6423 70.3635L59.2918 69.9885C59.2918 68.7386 58.4144 68.2321 57.332 68.857V69.607V70.357C57.697 70.1463 57.9928 70.3171 57.9928 70.7385L58.6423 70.3635ZM57.332 72.633V71.883C56.9671 72.0937 56.6712 71.9229 56.6712 71.5015L56.0217 71.8765L55.3722 72.2515C55.3722 73.5013 56.2497 74.0079 57.332 73.383V72.633ZM56.0217 71.8765L56.6712 71.5015C56.6712 71.0801 56.9671 70.5677 57.332 70.357V69.607V68.857C56.2497 69.4819 55.3722 71.0016 55.3722 72.2515L56.0217 71.8765ZM57.332 72.633L57.9815 72.258V69.232L57.332 69.607L56.6825 69.982V73.008L57.332 72.633Z" fill="white"/>
<path id="Vector_5" d="M70.435 65.068V65.818C71.5174 65.193 72.3948 63.6733 72.3948 62.4235L71.7453 62.7985L71.0958 63.1735C71.0958 63.5949 70.8 64.1073 70.435 64.318V65.068ZM71.7453 62.7985L72.3948 62.4235C72.3948 61.1736 71.5174 60.667 70.435 61.292V62.042V62.792C70.8 62.5812 71.0958 62.752 71.0958 63.1735L71.7453 62.7985ZM70.435 65.068V64.318C70.07 64.5287 69.7742 64.3579 69.7742 63.9365L69.1247 64.3115L68.4752 64.6865C68.4752 65.9363 69.3526 66.4429 70.435 65.818V65.068ZM69.1247 64.3115L69.7742 63.9365C69.7742 63.515 70.07 63.0027 70.435 62.792V62.042V61.292C69.3526 61.9169 68.4752 63.4366 68.4752 64.6865L69.1247 64.3115ZM70.435 65.068L71.0845 64.693V61.667L70.435 62.042L69.7855 62.417V65.443L70.435 65.068Z" fill="white"/>
<path id="Vector_6" d="M68.4752 51.0694C68.4752 51.4837 68.766 51.6515 69.1247 51.4444C69.4834 51.2373 69.7742 50.7337 69.7742 50.3194L69.1247 50.6944L68.4752 51.0694ZM61.3377 60.4817L61.9055 60.5181C62.0796 60.0557 61.9669 59.6645 61.6537 59.644L61.3377 60.4817ZM56.7642 71.0835C56.59 71.5462 56.703 71.9376 57.0166 71.9577C57.3302 71.9778 57.7256 71.6191 57.8998 71.1564L57.332 71.12L56.7642 71.0835ZM69.1247 50.6944L69.7742 50.3194C69.7742 46.5628 67.1368 45.0401 63.8835 46.9184V47.6684V48.4184C66.4194 46.9544 68.4752 48.1412 68.4752 51.0694L69.1247 50.6944ZM63.8835 47.6684V46.9184C60.6302 48.7968 57.9928 53.3648 57.9928 57.1214L58.6423 56.7464L59.2918 56.3714C59.2918 53.4432 61.3476 49.8825 63.8835 48.4184V47.6684ZM58.6423 56.7464L57.9928 57.1214C57.9928 59.68 59.2165 61.201 61.0218 61.3194L61.3377 60.4817L61.6537 59.644C60.2435 59.5515 59.2918 58.364 59.2918 56.3714L58.6423 56.7464ZM61.3377 60.4817L60.7699 60.4452L56.7642 71.0835L57.332 71.12L57.8998 71.1564L61.9055 60.5181L61.3377 60.4817Z" fill="white"/>
</g>
</g>
<defs>
<clipPath id="clip0_0_7">
<rect width="36.312" height="36.3121" fill="white" transform="matrix(0.866025 -0.5 0 1 48.1599 51.4509)"/>
</clipPath>
</defs>
</svg>
